<svg xmlns="http://www.w3.org/2000/svg" version="1.1" xmlns:xlink="http://www.w3.org/1999/xlink" xmlns:svgjs="http://svgjs.dev/svgjs" width="1500" height="1500" viewBox="0 0 1500 1500"><rect width="1500" height="1500" fill="#ffffff"></rect><g transform="matrix(0.6666666666666666,0,0,0.6666666666666666,249.81469290957574,313.5967741935483)"><svg viewBox="0 0 285 248" data-background-color="#ffffff" preserveAspectRatio="xMidYMid meet" height="1305" width="1500" xmlns="http://www.w3.org/2000/svg" xmlns:xlink="http://www.w3.org/1999/xlink"><g id="tight-bounds" transform="matrix(1,0,0,1,0.05281252077091381,0.4000000000000057)"><svg viewBox="0 0 284.8943749584582 247.2" height="247.2" width="284.8943749584582"><g><svg viewBox="0 0 397.4975999999999 344.904692254201" height="247.2" width="284.8943749584582"><g><svg viewBox="0 0 397.4975999999999 344.904692254201" height="344.904692254201" width="397.4975999999999"><g id="textblocktransform"><svg viewBox="0 0 397.4975999999999 344.904692254201" height="344.904692254201" width="397.4975999999999" id="textblock"><g><rect width="397.4975999999999" height="19.097682576074" x="0" y="234.26777380854503" fill="#b6a522" opacity="1" stroke-width="0" stroke="transparent" fill-opacity="1" class="rect-yte-0" data-fill-palette-color="primary" rx="1%" id="yte-0" data-palette-color="#b6a522"></rect></g><g transform="matrix(1,0,0,1,0.9887999999999693,0)"><svg viewBox="0 0 395.52 211.77050375819607" height="211.77050375819607" width="395.52"><g transform="matrix(1,0,0,1,0,0)"><svg width="395.52" viewBox="1.263333133342 -39.2 110.926666866658 59.400000000000006" height="211.77050375819607" data-palette-color="#b6a522"><path d="M10.05-26.05L10.05-26.05Q10.35-27.15 10.45-28.73 10.55-30.3 10.45-31.88 10.35-33.45 9.98-34.85 9.6-36.25 8.85-37L8.85-37Q8.55-37.3 8.38-37.2 8.2-37.1 8.45-36.7L8.45-36.7Q8.95-35.8 8.93-33.93 8.9-32.05 8.6-29.85 8.3-27.65 7.8-25.45 7.3-23.25 6.8-21.6L6.8-21.6Q6.55-20.9 6.3-19.85 6.05-18.8 5.78-17.73 5.5-16.65 5.3-15.63 5.1-14.6 5-13.9L5-13.9Q5-13.75 4.95-13.33 4.9-12.9 5.05-12.8L5.05-12.8Q5.15-12.8 5.35-13.23 5.55-13.65 5.6-13.75L5.6-13.75Q6.8-16.55 8.05-19.73 9.3-22.9 10.05-26.05ZM8.9-13.85L8.9-13.85Q9.15-14.75 9.6-16.2 10.05-17.65 10.5-19.38 10.95-21.1 11.38-22.98 11.8-24.85 12.03-26.63 12.25-28.4 12.18-29.9 12.1-31.4 11.65-32.35L11.65-32.35Q11.6-32.5 11.45-32.65 11.3-32.8 11.3-32.4L11.3-32.4Q11.4-29.2 10.65-26 9.9-22.8 9.05-20.2L9.05-20.2Q8.4-18.15 7.73-16.1 7.05-14.05 6.58-12.03 6.1-10 5.98-8.05 5.85-6.1 6.35-4.3L6.35-4.3Q6.55-3.65 6.7-3.65L6.7-3.65Q6.85-3.7 6.85-4.3L6.85-4.3Q6.85-5.2 7.03-6.33 7.2-7.45 7.5-8.7 7.8-9.95 8.15-11.28 8.5-12.6 8.9-13.85ZM7.95-0.15L7.95-0.15Q6.2-0.35 4.83-1.9 3.45-3.45 3-5.7L3-5.7Q2.55-7.85 2.78-10.08 3-12.3 3.55-14.25L3.55-14.25Q4.35-17.25 5.45-20.43 6.55-23.6 7.33-26.7 8.1-29.8 8.2-32.68 8.3-35.55 7.2-37.95L7.2-37.95Q7.1-38 7.05-38.18 7-38.35 6.9-38.3L6.9-38.3Q6.75-38.3 6.85-37.95L6.85-37.95Q7.25-35.65 6.9-32.98 6.55-30.3 5.78-27.43 5-24.55 4.03-21.5 3.05-18.45 2.2-15.4L2.2-15.4Q1.55-13.15 1.33-10.63 1.1-8.1 1.65-5.55L1.65-5.55Q1.95-4.25 2.58-3.2 3.2-2.15 4.05-1.43 4.9-0.7 5.9-0.3 6.9 0.1 7.95 0.05L7.95 0.05 8.1 0.05Q8.15 0.05 8.25 0L8.25 0Q8.25-0.15 7.95-0.15ZM6.45-2.65L6.45-2.65Q5.55-3.7 5-5.35L5-5.35Q4.95-5.5 4.85-5.83 4.75-6.15 4.65-6.48 4.55-6.8 4.45-7.08 4.35-7.35 4.3-7.35L4.3-7.35Q4.1-7.35 4.1-6.7 4.1-6.05 4.25-5.2 4.4-4.35 4.7-3.48 5-2.6 5.4-2.1L5.4-2.1Q6.2-1.2 7.03-1 7.85-0.8 8.7-0.8L8.7-0.8Q9-0.8 9.18-0.98 9.35-1.15 8.9-1.25L8.9-1.25Q7.45-1.4 6.45-2.65ZM18.65-16.5L18.65-16.5Q18.8-17.15 18.82-18 18.85-18.85 18.7-19.75 18.55-20.65 18.17-21.48 17.8-22.3 17.2-22.9L17.2-22.9Q16.9-23.1 16.85-23.1L16.85-23.1Q16.65-23.1 16.85-22.8L16.85-22.8Q17.15-22.15 17.07-20.78 17-19.4 16.75-17.93 16.5-16.45 16.22-15.28 15.95-14.1 15.9-13.85L15.9-13.85Q15.55-12.95 15.27-11.6 15-10.25 15-9.4L15-9.4Q14.95-9.3 14.95-9 14.95-8.7 15.1-8.65L15.1-8.65Q15.15-8.65 15.3-8.9 15.45-9.15 15.55-9.25L15.55-9.25Q16.45-10.85 17.27-12.75 18.1-14.65 18.65-16.5ZM18.85-8.95L18.85-8.95Q19.05-9.85 19.5-11.28 19.95-12.7 20.25-14.23 20.55-15.75 20.55-17.23 20.55-18.7 19.95-19.65L19.95-19.65Q19.75-19.85 19.65-19.85L19.65-19.85Q19.55-19.85 19.6-19.65L19.6-19.65Q19.6-17.75 19.17-16.13 18.75-14.5 18.25-12.95L18.25-12.95Q17.4-10.4 16.7-7.98 16-5.55 16.1-3L16.1-3Q16.1-2.85 16.12-2.68 16.15-2.5 16.3-2.5L16.3-2.5Q16.4-2.5 16.45-2.6 16.5-2.7 16.6-2.9L16.6-2.9Q17.1-4.1 17.75-5.73 18.4-7.35 18.85-8.95ZM15.3 0L15.3 0Q14.35-1 13.85-2.23 13.35-3.45 13.15-4.73 12.95-6 13.05-7.3 13.15-8.6 13.45-9.75L13.45-9.75Q13.9-11.55 14.6-13.35 15.3-15.15 15.8-16.93 16.3-18.7 16.37-20.43 16.45-22.15 15.65-23.8L15.65-23.8Q15.5-24.05 15.45-24.05L15.45-24.05Q15.4-24.05 15.4-23.98 15.4-23.9 15.45-23.85L15.45-23.85Q15.6-22.35 15.25-20.75 14.9-19.15 14.35-17.48 13.8-15.8 13.12-14.03 12.45-12.25 12-10.4L12-10.4Q11.65-9.05 11.52-7.65 11.4-6.25 11.7-4.88 12-3.5 12.8-2.25 13.6-1 15.1 0.05L15.1 0.05Q15.2 0.15 15.35 0.18 15.5 0.2 15.3 0ZM15.7-1.9L15.7-1.9Q15.55-2.3 15.37-2.9 15.2-3.5 15.1-4.05L15.1-4.05Q15-4.25 14.85-4.8 14.7-5.35 14.6-5.35L14.6-5.35Q14.4-5.35 14.32-5 14.25-4.65 14.25-4.13 14.25-3.6 14.32-3.03 14.4-2.45 14.55-2.05L14.55-2.05Q14.85-1.05 15.27-0.65 15.7-0.25 16.4 0L16.4 0Q16.7 0.15 16.85 0.15L16.85 0.15Q16.9 0.15 16.87 0.08 16.85 0 16.8 0L16.8 0Q16.45-0.4 16.17-0.85 15.9-1.3 15.7-1.9ZM19.6-27.75L19.6-27.75Q19.35-27.75 18.82-27.83 18.3-27.9 18.3-28.3L18.3-28.3Q18.3-28.45 18.75-28.68 19.2-28.9 19.75-29.33 20.3-29.75 20.75-30.43 21.2-31.1 21.2-32.15L21.2-32.15Q21.2-33.45 20.7-34.1L20.7-34.1Q20.6-34.25 20.45-34.43 20.3-34.6 20.35-34.65L20.35-34.65Q20.45-34.65 20.57-34.58 20.7-34.5 20.75-34.45L20.75-34.45Q21.75-33.9 22.27-33.02 22.8-32.15 22.8-31.35L22.8-31.35Q22.8-29.75 22.05-28.75 21.3-27.75 19.6-27.75ZM17.75-29.75L17.75-29.75Q17.15-29.5 17.15-30.05L17.15-30.05Q17.15-30.45 17.45-30.83 17.75-31.2 18.02-31.65 18.3-32.1 18.4-32.68 18.5-33.25 18.1-34.1L18.1-34.1Q18-34.35 17.75-34.65 17.5-34.95 17.6-35L17.6-35Q17.7-35.05 18.02-34.93 18.35-34.8 18.45-34.75L18.45-34.75Q19.3-34.35 19.72-33.55 20.15-32.75 20.15-32.15L20.15-32.15Q20.15-31.2 19.37-30.58 18.6-29.95 17.75-29.75ZM16.3-32.45L16.3-32.45Q16.3-32.7 16.45-33.02 16.6-33.35 16.95-33.35L16.95-33.35Q17.2-33.35 17.35-33.02 17.5-32.7 17.5-32.45L17.5-32.45Q17.5-32.25 17.35-31.93 17.2-31.6 16.95-31.6L16.95-31.6Q16.6-31.6 16.45-31.9 16.3-32.2 16.3-32.45ZM32.95-9.4L32.95-9.4Q32.3-8.2 31.5-6.83 30.7-5.45 29.95-4.85L29.95-4.85Q29.2-4.25 28.9-4.45 28.6-4.65 28.2-5.35L28.2-5.35Q27.8-5.95 27.8-5.95L27.8-5.95Q27.65-5.9 27.65-5.6 27.65-5.3 27.75-5.05L27.75-5.05Q28.05-4.05 28.47-3.68 28.9-3.3 29.7-3.55L29.7-3.55Q30.6-3.8 31.47-4.65 32.34-5.5 33-6.35L33-6.35Q34.5-8.4 35.37-10.7 36.25-13 36.34-15.4L36.34-15.4Q36.45-17.6 35.8-18.25 35.15-18.9 34.17-18.68 33.2-18.45 32.07-17.63 30.95-16.8 30.05-16.05L30.05-16.05Q30.35-16.8 30.87-17.5 31.4-18.2 32.07-18.73 32.75-19.25 33.57-19.53 34.4-19.8 35.25-19.7L35.25-19.7Q35.75-19.65 36.15-19.2 36.55-18.75 36.8-18.07 37.05-17.4 37.12-16.5 37.2-15.6 37.09-14.65L37.09-14.65Q36.84-12.75 36.37-10.85 35.9-8.95 35.15-7.35L35.15-7.35Q35.05-7.1 34.82-6.65 34.59-6.2 34.7-6.1L34.7-6.1Q34.8-6 35.17-6.43 35.55-6.85 35.75-7.05L35.75-7.05Q36.65-8.25 37.34-9.78 38.05-11.3 38.42-12.9 38.8-14.5 38.84-16.13 38.9-17.75 38.55-19.2L38.55-19.2Q38.25-20.45 37.32-20.9 36.4-21.35 35.3-21.2 34.2-21.05 33.09-20.5 32-19.95 31.3-19.3L31.3-19.3Q31.6-20.05 32.12-20.63 32.65-21.2 33.32-21.63 34-22.05 34.77-22.23 35.55-22.4 36.34-22.3L36.34-22.3Q37.75-22.15 38.47-21.2 39.2-20.25 39.47-19.03 39.75-17.8 39.72-16.48 39.7-15.15 39.59-14.25L39.59-14.25Q39.34-12.15 38.65-10.1 37.95-8.05 36.9-6.3L36.9-6.3Q36.05-4.9 34.67-3.55 33.3-2.2 31.7-1.4 30.09-0.6 28.4-0.58 26.7-0.55 25.2-1.8L25.2-1.8Q24.2-2.65 23.77-4.08 23.35-5.5 23.2-6.8L23.2-6.8Q22.95-9.05 23.27-11.33 23.6-13.6 24.25-15.55L24.25-15.55Q25.25-18.6 26.52-21.7 27.8-24.8 28.72-27.8 29.65-30.8 29.9-33.6 30.15-36.4 29.09-38.9L29.09-38.9Q29.05-39 29.02-39.1 29-39.2 28.95-39.2L28.95-39.2Q28.8-39.15 28.82-39.1 28.84-39.05 28.84-39L28.84-39Q29.15-36.6 28.65-34 28.15-31.4 27.22-28.6 26.3-25.8 25.15-22.83 24-19.85 22.95-16.7L22.95-16.7Q22.25-14.45 21.82-11.9 21.39-9.35 21.8-6.7L21.8-6.7Q22.35-3.1 24.75-1.35 27.15 0.4 30.75 0L30.75 0Q33.34-0.3 35.34-2.1 37.34-3.9 38.7-6.45L38.7-6.45Q39.7-8.4 40.42-10.58 41.15-12.75 41.3-15L41.3-15Q41.4-16.4 41.27-17.9 41.15-19.4 40.62-20.68 40.09-21.95 39.07-22.78 38.05-23.6 36.34-23.7L36.34-23.7Q35.34-23.75 34.12-23.2 32.9-22.65 32.2-21.9L32.2-21.9Q32.65-23.4 33.02-24.98 33.4-26.55 33.59-28 33.8-29.45 33.77-30.73 33.75-32 33.4-32.9L33.4-32.9Q33.3-33.3 33.2-33.3L33.2-33.3Q33.15-33.3 33.15-32.9L33.15-32.9Q33.05-29.7 32.09-26.83 31.15-23.95 30.2-21.35L30.2-21.35Q29.45-19.25 28.62-17.18 27.8-15.1 27.22-13.05 26.65-11 26.4-9.03 26.15-7.05 26.5-5.2L26.5-5.2Q26.55-5 26.67-4.73 26.8-4.45 26.9-4.45L26.9-4.45Q27-4.45 26.97-4.7 26.95-4.95 27-5.2L27-5.2Q27.25-6.95 27.95-9.43 28.65-11.9 29.59-14.4L29.59-14.4Q30.15-14.9 30.92-15.58 31.7-16.25 32.47-16.8 33.25-17.35 33.9-17.63 34.55-17.9 34.84-17.65L34.84-17.65Q35.25-17.25 35.15-16.18 35.05-15.1 34.67-13.8 34.3-12.5 33.8-11.28 33.3-10.05 32.95-9.4ZM31.5-27.35L31.5-27.35Q31.8-28.4 31.97-29.88 32.15-31.35 32.09-32.83 32.05-34.3 31.72-35.63 31.4-36.95 30.75-37.75L30.75-37.75Q30.65-37.85 30.55-37.98 30.45-38.1 30.35-38.1L30.35-38.1Q30.2-38.1 30.4-37.6L30.4-37.6Q30.85-36.6 30.7-34.63 30.55-32.65 30.09-30.4 29.65-28.15 29.05-26 28.45-23.85 27.95-22.6L27.95-22.6Q27.65-21.9 27.32-20.9 27-19.9 26.7-18.88 26.4-17.85 26.12-16.88 25.85-15.9 25.7-15.2L25.7-15.2Q25.7-14.95 25.62-14.5 25.55-14.05 25.6-14.05L25.6-14.05Q25.85-13.95 26.02-14.4 26.2-14.85 26.35-14.95L26.35-14.95Q27.75-17.8 29.12-20.98 30.5-24.15 31.5-27.35ZM26.15-3.55L26.15-3.55Q26.6-2.8 27.3-2.33 28-1.85 28.7-1.7L28.7-1.7Q28.95-1.65 29.25-1.58 29.55-1.5 29.55-1.3L29.55-1.3Q29.5-1.15 29.09-1.05L29.09-1.05Q28.9-1 28.65-1L28.65-1Q27.8-1.05 26.97-1.3 26.15-1.55 25.25-2.75L25.25-2.75Q24.65-3.55 24.37-4.55 24.1-5.55 24.05-6.45 24-7.35 24.12-7.95 24.25-8.55 24.5-8.5L24.5-8.5Q24.55-8.5 24.65-8.22 24.75-7.95 24.82-7.58 24.9-7.2 24.97-6.88 25.05-6.55 25.1-6.4L25.1-6.4Q25.3-5.55 25.45-5 25.6-4.45 26.15-3.55ZM48.74-16.65L48.74-16.65Q48.34-14.95 47.62-13.08 46.89-11.2 45.99-9.6L45.99-9.6Q45.99-9.5 45.87-9.28 45.74-9.05 45.54-9.05L45.54-9.05Q45.44-9.05 45.42-9.35 45.39-9.65 45.44-9.75L45.44-9.75Q45.44-10.55 45.64-11.88 45.84-13.2 46.14-14.05L46.14-14.05Q46.24-14.35 46.47-15.5 46.69-16.65 46.87-18.07 47.04-19.5 47.07-20.83 47.09-22.15 46.74-22.8L46.74-22.8 46.74-23Q46.94-23.15 47.19-22.9L47.19-22.9Q47.84-22.35 48.22-21.55 48.59-20.75 48.77-19.88 48.94-19 48.92-18.15 48.89-17.3 48.74-16.65ZM50.69-16.85L50.69-16.85Q51.24-17.55 51.74-17.85 52.24-18.15 52.74-18.35L52.74-18.35Q52.79-18.35 52.99-18.4 53.19-18.45 53.29-18.3L53.29-18.3Q53.39-18.15 53.24-17.95 53.09-17.75 52.99-17.65L52.99-17.65Q52.64-17.3 52.22-16.88 51.79-16.45 51.44-16.05L51.44-16.05Q50.94-15.5 50.64-14.78 50.34-14.05 50.19-13.3L50.19-13.3Q51.04-14.2 51.82-15 52.59-15.8 53.49-16.5L53.49-16.5Q54.64-17.35 55.49-18.7 56.34-20.05 56.69-22.65L56.69-22.65Q56.79-22.9 56.94-22.95 57.09-23 57.09-22.6L57.09-22.6Q57.24-19.7 56.49-18 55.74-16.3 54.24-15.15L54.24-15.15Q53.44-14.55 52.64-13.85 51.84-13.15 51.12-12.3 50.39-11.45 49.79-10.3 49.19-9.15 48.74-7.65L48.74-7.65Q48.39-6.5 48.04-5.48 47.69-4.45 47.29-3.5L47.29-3.5Q47.19-3.15 46.99-3.15L46.99-3.15Q46.84-3.2 46.84-3.65L46.84-3.65Q46.59-6.05 47.17-8.43 47.74-10.8 48.54-13.35L48.54-13.35Q48.89-14.6 49.37-15.85 49.84-17.1 49.79-18.7L49.79-18.7Q49.79-19.25 50.24-19.85 50.69-20.45 51.34-20.98 51.99-21.5 52.69-21.88 53.39-22.25 53.89-22.4L53.89-22.4Q54.34-22.55 54.34-22.35 54.34-22.15 54.04-21.85L54.04-21.85Q52.99-20.9 51.92-19.6 50.84-18.3 50.69-16.85ZM46.34-0.05L46.34-0.05Q46.29 0 46.27-0.03 46.24-0.05 45.99-0.2L45.99-0.2Q44.49-1.3 43.64-2.6 42.79-3.9 42.42-5.28 42.04-6.65 42.09-8.03 42.14-9.4 42.44-10.7L42.44-10.7Q42.84-12.45 43.42-14.18 43.99-15.9 44.49-17.53 44.99-19.15 45.24-20.73 45.49-22.3 45.24-23.75L45.24-23.75Q45.24-23.85 45.39-23.9L45.39-23.9Q45.44-23.9 45.49-23.83 45.54-23.75 45.59-23.7L45.59-23.7Q46.54-22.1 46.54-20.43 46.54-18.75 46.09-17.03 45.64-15.3 44.97-13.53 44.29-11.75 43.89-9.95L43.89-9.95Q43.39-7.65 43.82-5.05 44.24-2.45 46.14-0.4L46.14-0.4Q46.24-0.25 46.34-0.2 46.44-0.15 46.34-0.05ZM47.84 0L47.84 0Q47.74 0 47.64-0.05L47.64-0.05 47.44-0.15Q46.74-0.6 46.19-1.13 45.64-1.65 45.24-2.65L45.24-2.65Q45.09-3 44.99-3.58 44.89-4.15 44.87-4.65 44.84-5.15 44.92-5.5 44.99-5.85 45.19-5.8L45.19-5.8Q45.34-5.8 45.52-5.4 45.69-5 45.79-4.6L45.79-4.6Q45.89-4.05 46.02-3.55 46.14-3.05 46.34-2.65L46.34-2.65Q46.89-1.4 47.79-0.25L47.79-0.25Q47.89 0 47.84 0ZM55.99-22.45L55.99-22.45Q55.99-21.4 55.39-20.6 54.79-19.8 53.94-19.25L53.94-19.25Q53.79-19.15 53.74-19.28 53.69-19.4 53.69-19.45L53.69-19.45Q53.69-19.75 53.94-20.18 54.19-20.6 54.52-21.08 54.84-21.55 55.14-22.05 55.44-22.55 55.54-22.95L55.54-22.95Q55.69-23.2 55.84-22.95 55.99-22.7 55.99-22.45ZM76.14-17.6L76.14-17.6Q75.74-15.6 74.79-13.6 73.84-11.6 72.99-9.85L72.99-9.85Q72.94-9.75 72.77-9.5 72.59-9.25 72.49-9.25L72.49-9.25Q72.34-9.3 72.34-9.58 72.34-9.85 72.34-9.95L72.34-9.95Q72.39-10.4 72.52-11.03 72.64-11.65 72.74-12.33 72.84-13 72.97-13.63 73.09-14.25 73.24-14.75L73.24-14.75Q73.69-16.45 73.99-17.68 74.29-18.9 74.44-19.9 74.59-20.9 74.62-21.8 74.64-22.7 74.49-23.75L74.49-23.75Q74.44-24.15 74.54-24.25L74.54-24.25Q74.64-24.3 74.79-24.15 74.94-24 75.04-23.85L75.04-23.85Q75.89-22.5 76.19-20.88 76.49-19.25 76.14-17.6ZM77.14-21.25L77.34-20.95Q77.99-20 77.99-18.45 77.99-16.9 77.69-15.28 77.39-13.65 76.94-12.15 76.49-10.65 76.29-9.75L76.29-9.75Q75.89-8 75.19-6.25 74.49-4.5 73.99-3.15L73.99-3.15Q73.94-3 73.84-2.83 73.74-2.65 73.64-2.65L73.64-2.65Q73.54-2.65 73.54-2.85 73.54-3.05 73.54-3.2L73.54-3.2Q73.39-5.95 74.14-8.58 74.89-11.2 75.74-13.9L75.74-13.9Q76.24-15.55 76.69-17.28 77.14-19 77.09-21.05L77.09-21.05Q77.09-21.25 77.14-21.25L77.14-21.25ZM72.64-21.8L72.64-21.8Q69.59-20.55 67.47-18.23 65.34-15.9 64.19-13L64.19-13Q63.69-11.7 63.44-10.68 63.19-9.65 63.04-8.45L63.04-8.45Q62.99-8.2 63.19-7.95 63.39-7.7 63.59-7.95L63.59-7.95Q64.49-9.05 65.89-10.75 67.29-12.45 68.69-14.35 70.09-16.25 71.22-18.2 72.34-20.15 72.64-21.8ZM69.29-4.85L69.29-4.85Q68.54-3.8 67.84-2.9 67.14-2 66.29-1.33 65.44-0.65 64.39-0.25 63.34 0.15 61.99 0.2L61.99 0.2Q59.74 0.3 58.57-0.95 57.39-2.2 56.94-4 56.49-5.8 56.62-7.73 56.74-9.65 57.14-10.9L57.14-10.9Q57.69-12.65 58.47-14.23 59.24-15.8 60.12-17.07 60.99-18.35 61.92-19.28 62.84-20.2 63.74-20.7L63.74-20.7Q63.79-20.7 63.97-20.8 64.14-20.9 64.14-20.75L64.14-20.75Q64.19-20.75 64.09-20.6 63.99-20.45 63.89-20.35L63.89-20.35Q61.29-17.65 59.77-14.25 58.24-10.85 58.04-7.25L58.04-7.25Q57.99-6.35 58.12-5.3 58.24-4.25 58.62-3.33 58.99-2.4 59.69-1.78 60.39-1.15 61.59-1.15L61.59-1.15Q62.54-1.15 63.34-1.48 64.14-1.8 64.84-2.33 65.54-2.85 66.12-3.48 66.69-4.1 67.14-4.65L67.14-4.65Q68.14-5.9 68.99-7.25L68.99-7.25Q68.99-8.25 69.12-9.2 69.24-10.15 69.49-11.1L69.49-11.1Q69.64-11.8 69.77-12.23 69.89-12.65 70.02-13.03 70.14-13.4 70.27-13.83 70.39-14.25 70.64-14.95L70.64-14.95Q69.84-13.55 69.07-12.33 68.29-11.1 67.42-9.98 66.54-8.85 65.62-7.78 64.69-6.7 63.59-5.6L63.59-5.6Q62.74-4.75 62.19-5.05 61.64-5.35 61.54-6.45L61.54-6.45Q61.44-8.15 61.72-9.75 61.99-11.35 62.69-13.1L62.69-13.1Q63.34-14.7 64.32-16.2 65.29-17.7 66.57-18.93 67.84-20.15 69.39-21.03 70.94-21.9 72.69-22.2L72.69-22.2Q72.79-22.75 72.87-23.15 72.94-23.55 72.99-23.95L72.99-23.95Q73.09-24.5 73.09-24.5L73.09-24.5Q73.19-24.55 73.32-24.4 73.44-24.25 73.54-24L73.54-24Q74.14-22.35 73.94-20.7 73.74-19.05 73.22-17.35 72.69-15.65 71.99-13.88 71.29-12.1 70.84-10.3L70.84-10.3Q70.24-7.75 70.52-5.03 70.79-2.3 72.64-0.1L72.64-0.1Q72.79 0.1 72.79 0.1L72.79 0.1Q72.74 0.15 72.49 0L72.49 0Q71.04-0.9 70.32-2.18 69.59-3.45 69.29-4.85ZM71.04-22.55L71.04-22.55Q71.14-22.45 71.02-22.4 70.89-22.35 70.49-22.25L70.49-22.25Q69.84-22.05 68.92-21.5 67.99-20.95 66.97-20.1 65.94-19.25 64.94-18.13 63.94-17 63.19-15.7L63.19-15.7Q62.44-14.35 61.92-13.05 61.39-11.75 61.07-10.68 60.74-9.6 60.59-8.83 60.44-8.05 60.44-7.75L60.44-7.75Q60.44-7 60.44-6.18 60.44-5.35 60.64-4.7 60.84-4.05 61.34-3.7 61.84-3.35 62.84-3.5L62.84-3.5Q62.89-3.5 63.09-3.58 63.29-3.65 63.49-3.73 63.69-3.8 63.87-3.85 64.04-3.9 64.09-3.9L64.09-3.9Q64.14-3.8 64.02-3.65 63.89-3.5 63.69-3.33 63.49-3.15 63.32-3 63.14-2.85 63.09-2.8L63.09-2.8Q61.84-2.05 60.99-2.35 60.14-2.65 59.67-3.48 59.19-4.3 59.02-5.43 58.84-6.55 58.89-7.45L58.89-7.45Q58.99-9.2 59.44-10.93 59.89-12.65 60.59-14.4L60.59-14.4Q61.14-15.75 62.24-17.18 63.34-18.6 64.72-19.8 66.09-21 67.59-21.78 69.09-22.55 70.49-22.6L70.49-22.6Q70.99-22.6 71.04-22.55ZM73.99-0.1L73.99-0.1Q74.09 0.05 74.04 0.1L74.04 0.1Q73.89 0.1 73.64 0L73.64 0Q73.49-0.1 72.84-0.6 72.19-1.1 71.89-2.2L71.89-2.2Q71.79-2.6 71.72-3.23 71.64-3.85 71.64-4.4 71.64-4.95 71.72-5.35 71.79-5.75 71.94-5.75L71.94-5.75Q72.09-5.75 72.27-5.15 72.44-4.55 72.49-4.4L72.49-4.4Q72.64-3.7 72.77-3.18 72.89-2.65 73.04-2.2L73.04-2.2Q73.24-1.65 73.57-0.95 73.89-0.25 73.99-0.1ZM85.14-16.65L85.14-16.65Q84.74-14.95 84.01-13.08 83.29-11.2 82.39-9.6L82.39-9.6Q82.39-9.5 82.26-9.28 82.14-9.05 81.94-9.05L81.94-9.05Q81.84-9.05 81.81-9.35 81.79-9.65 81.84-9.75L81.84-9.75Q81.84-10.55 82.04-11.88 82.24-13.2 82.54-14.05L82.54-14.05Q82.64-14.35 82.86-15.5 83.09-16.65 83.26-18.07 83.44-19.5 83.46-20.83 83.49-22.15 83.14-22.8L83.14-22.8 83.14-23Q83.34-23.15 83.59-22.9L83.59-22.9Q84.24-22.35 84.61-21.55 84.99-20.75 85.16-19.88 85.34-19 85.31-18.15 85.29-17.3 85.14-16.65ZM87.09-16.85L87.09-16.85Q87.64-17.55 88.14-17.85 88.64-18.15 89.14-18.35L89.14-18.35Q89.19-18.35 89.39-18.4 89.59-18.45 89.69-18.3L89.69-18.3Q89.79-18.15 89.64-17.95 89.49-17.75 89.39-17.65L89.39-17.65Q89.04-17.3 88.61-16.88 88.19-16.45 87.84-16.05L87.84-16.05Q87.34-15.5 87.04-14.78 86.74-14.05 86.59-13.3L86.59-13.3Q87.44-14.2 88.21-15 88.99-15.8 89.89-16.5L89.89-16.5Q91.04-17.35 91.89-18.7 92.74-20.05 93.09-22.65L93.09-22.65Q93.19-22.9 93.34-22.95 93.49-23 93.49-22.6L93.49-22.6Q93.64-19.7 92.89-18 92.14-16.3 90.64-15.15L90.64-15.15Q89.84-14.55 89.04-13.85 88.24-13.15 87.51-12.3 86.79-11.45 86.19-10.3 85.59-9.15 85.14-7.65L85.14-7.65Q84.79-6.5 84.44-5.48 84.09-4.45 83.69-3.5L83.69-3.5Q83.59-3.15 83.39-3.15L83.39-3.15Q83.24-3.2 83.24-3.65L83.24-3.65Q82.99-6.05 83.56-8.43 84.14-10.8 84.94-13.35L84.94-13.35Q85.29-14.6 85.76-15.85 86.24-17.1 86.19-18.7L86.19-18.7Q86.19-19.25 86.64-19.85 87.09-20.45 87.74-20.98 88.39-21.5 89.09-21.88 89.79-22.25 90.29-22.4L90.29-22.4Q90.74-22.55 90.74-22.35 90.74-22.15 90.44-21.85L90.44-21.85Q89.39-20.9 88.31-19.6 87.24-18.3 87.09-16.85ZM82.74-0.05L82.74-0.05Q82.69 0 82.66-0.03 82.64-0.05 82.39-0.2L82.39-0.2Q80.89-1.3 80.04-2.6 79.19-3.9 78.81-5.28 78.44-6.65 78.49-8.03 78.54-9.4 78.84-10.7L78.84-10.7Q79.24-12.45 79.81-14.18 80.39-15.9 80.89-17.53 81.39-19.15 81.64-20.73 81.89-22.3 81.64-23.75L81.64-23.75Q81.64-23.85 81.79-23.9L81.79-23.9Q81.84-23.9 81.89-23.83 81.94-23.75 81.99-23.7L81.99-23.7Q82.94-22.1 82.94-20.43 82.94-18.75 82.49-17.03 82.04-15.3 81.36-13.53 80.69-11.75 80.29-9.95L80.29-9.95Q79.79-7.65 80.21-5.05 80.64-2.45 82.54-0.4L82.54-0.4Q82.64-0.25 82.74-0.2 82.84-0.15 82.74-0.05ZM84.24 0L84.24 0Q84.14 0 84.04-0.05L84.04-0.05 83.84-0.15Q83.14-0.6 82.59-1.13 82.04-1.65 81.64-2.65L81.64-2.65Q81.49-3 81.39-3.58 81.29-4.15 81.26-4.65 81.24-5.15 81.31-5.5 81.39-5.85 81.59-5.8L81.59-5.8Q81.74-5.8 81.91-5.4 82.09-5 82.19-4.6L82.19-4.6Q82.29-4.05 82.41-3.55 82.54-3.05 82.74-2.65L82.74-2.65Q83.29-1.4 84.19-0.25L84.19-0.25Q84.29 0 84.24 0ZM92.39-22.45L92.39-22.45Q92.39-21.4 91.79-20.6 91.19-19.8 90.34-19.25L90.34-19.25Q90.19-19.15 90.14-19.28 90.09-19.4 90.09-19.45L90.09-19.45Q90.09-19.75 90.34-20.18 90.59-20.6 90.91-21.08 91.24-21.55 91.54-22.05 91.84-22.55 91.94-22.95L91.94-22.95Q92.09-23.2 92.24-22.95 92.39-22.7 92.39-22.45ZM110.69-17.35L110.69-17.35Q110.69-14.85 110.01-12.13 109.34-9.4 108.24-6.75 107.14-4.1 105.71-1.73 104.29 0.65 102.79 2.35L102.79 2.35Q102.24 2.95 102.14 2.9 102.04 2.85 102.24 2.15L102.24 2.15Q102.54 1.35 103.01 0.35 103.49-0.65 103.96-1.63 104.44-2.6 104.91-3.5 105.39-4.4 105.69-5L105.69-5Q106.04-5.75 106.49-6.98 106.94-8.2 107.36-9.7 107.79-11.2 108.19-12.85 108.59-14.5 108.89-16.03 109.19-17.55 109.36-18.82 109.54-20.1 109.49-20.9L109.49-20.9Q109.44-21.8 109.51-22.08 109.59-22.35 109.69-22.28 109.79-22.2 109.91-21.95 110.04-21.7 110.14-21.5L110.14-21.5Q110.49-20.5 110.59-19.25 110.69-18 110.69-17.35ZM100.84-3.55L100.84-3.55Q100.49-3.15 99.89-2.8 99.29-2.45 98.74-2.45L98.74-2.45Q97.54-2.45 96.76-3.15 95.99-3.85 95.54-4.88 95.09-5.9 94.91-7.05 94.74-8.2 94.74-9.1L94.74-9.1Q94.74-10.45 95.01-12.23 95.29-14 95.86-15.78 96.44-17.55 97.26-19.13 98.09-20.7 99.24-21.65L99.24-21.65Q99.54-21.85 99.79-22.03 100.04-22.2 99.64-21.5L99.64-21.5Q99.34-20.95 99.06-20.55 98.79-20.15 98.64-19.65L98.64-19.65Q97.84-18.2 97.36-16.6 96.89-15 96.59-13.35L96.59-13.35Q96.14-11.15 96.14-8.95L96.14-8.95Q96.14-8.15 96.21-7.2 96.29-6.25 96.59-5.4 96.89-4.55 97.51-3.98 98.14-3.4 99.24-3.4L99.24-3.4Q99.54-3.4 99.94-3.55 100.34-3.7 100.59-3.85L100.59-3.85Q100.99-4 100.99-3.9 100.99-3.8 100.84-3.55ZM111.99-16.5L111.99-16.5Q112.19-15.75 112.19-14.75L112.19-14.75Q112.19-12.7 111.59-10.23 110.99-7.75 110.01-5.1 109.04-2.45 107.71 0.25 106.39 2.95 104.96 5.45 103.54 7.95 102.04 10.13 100.54 12.3 99.19 13.9L99.19 13.9Q99.14 13.95 99.01 14.1 98.89 14.25 98.76 14.38 98.64 14.5 98.54 14.55 98.44 14.6 98.44 14.4L98.44 14.4Q98.44 14.3 99.06 13.08 99.69 11.85 100.64 10.03 101.59 8.2 102.71 6.08 103.84 3.95 104.89 2 105.94 0.05 106.71-1.45 107.49-2.95 107.74-3.5L107.74-3.5Q109.19-6.7 110.21-9.93 111.24-13.15 111.64-16.6L111.64-16.6Q111.69-17 111.71-17.03 111.74-17.05 111.99-16.5ZM108.74-20.2L108.74-20.2Q108.74-17.4 107.96-14.53 107.19-11.65 106.04-8.85 104.89-6.05 103.51-3.43 102.14-0.8 100.89 1.45L100.89 1.45Q98.64 5.65 97.09 9.98 95.54 14.3 94.94 19L94.94 19Q94.84 19.55 94.79 19.45L94.79 19.45Q94.74 19.45 94.66 19.18 94.59 18.9 94.54 18.57 94.49 18.25 94.46 17.9 94.44 17.55 94.44 17.3L94.44 17.3Q94.44 15.05 94.94 12.75 95.44 10.45 96.24 8.25 97.04 6.05 98.01 3.95 98.99 1.85 99.99 0L99.99 0 98.64 0Q97.14 0 96.04-0.7 94.94-1.4 94.24-2.55 93.54-3.7 93.16-5.25 92.79-6.8 92.79-8.5L92.79-8.5Q92.79-9.15 92.94-10.33 93.09-11.5 93.39-12.78 93.69-14.05 94.14-15.28 94.59-16.5 95.14-17.25L95.14-17.25Q95.54-17.8 95.59-17.7 95.64-17.6 95.49-17.05L95.49-17.05Q94.84-15.15 94.46-13.1 94.09-11.05 94.09-9.05L94.09-9.05Q94.09-7.9 94.24-6.55 94.39-5.2 94.86-4.08 95.34-2.95 96.24-2.2 97.14-1.45 98.69-1.45L98.69-1.45Q99.79-1.45 100.69-2.2 101.59-2.95 102.31-4.05 103.04-5.15 103.61-6.45 104.19-7.75 104.64-8.85L104.64-8.85Q104.14-8.15 103.46-7.48 102.79-6.8 102.04-6.25 101.29-5.7 100.54-5.35 99.79-5 99.09-5L99.09-5Q98.39-5 97.99-5.45 97.59-5.9 97.36-6.58 97.14-7.25 97.09-7.95 97.04-8.65 97.04-9.2L97.04-9.2Q97.04-11 97.26-12.83 97.49-14.65 97.99-16.43 98.49-18.2 99.31-19.83 100.14-21.45 101.34-22.8L101.34-22.8Q101.44-22.95 101.59-23.08 101.74-23.2 101.86-23.25 101.99-23.3 101.99-23.23 101.99-23.15 101.79-22.8L101.79-22.8Q100.34-20.1 99.41-16.8 98.49-13.5 98.49-10.4L98.49-10.4Q98.49-10.1 98.51-9.43 98.54-8.75 98.66-8.05 98.79-7.35 99.06-6.83 99.34-6.3 99.79-6.3L99.79-6.3Q99.94-6.3 100.19-6.45L100.19-6.45Q102.29-7.5 103.74-9.35 105.19-11.2 106.14-13.48 107.09-15.75 107.51-18.18 107.94-20.6 107.99-22.8L107.99-22.8Q107.99-23.6 108.09-23.65 108.19-23.7 108.44-22.8L108.44-22.8Q108.74-21.35 108.74-20.2ZM99.19 9.4L99.19 9.4Q99.19 9.75 98.96 10.55 98.74 11.35 98.44 12.25 98.14 13.15 97.84 14 97.54 14.85 97.39 15.3L97.39 15.3Q96.99 16.4 96.79 17.48 96.59 18.55 96.34 19.7L96.34 19.7Q96.34 19.8 96.29 20 96.24 20.2 96.09 20.2L96.09 20.2Q95.99 20.2 95.94 19.95 95.89 19.7 95.89 19.6L95.89 19.6Q95.79 19.2 95.76 18.5 95.74 17.8 95.79 17.4L95.79 17.4Q95.94 16.15 96.34 14.73 96.74 13.3 97.21 12.08 97.69 10.85 98.19 10.05 98.69 9.25 99.04 9.25L99.04 9.25Q99.19 9.25 99.19 9.4Z" opacity="1" transform="matrix(1,0,0,1,0,0)" fill="#b6a522" class="wordmark-text-0" data-fill-palette-color="primary" id="text-0"></path></svg></g></svg></g><g transform="matrix(1,0,0,1,0,275.86272643496795)"><svg viewBox="0 0 395.52 69.04196581923306" height="69.04196581923306" width="395.52"><g transform="matrix(1,0,0,1,0,0)"><svg width="395.52" viewBox="1.1 -38.38 287.09999999999997 50.120000000000005" height="69.04196581923306" data-palette-color="#b6a522"><path d="M12.99-19.31L12.99-1.29Q12.99-0.56 12.68-0.28 12.38 0 11.65 0L11.65 0 6.62 0Q5.88 0 5.58-0.28 5.27-0.56 5.27-1.29L5.27-1.29 5.27-19.31 2.39-19.31Q1.66-19.31 1.38-19.62 1.1-19.92 1.1-20.65L1.1-20.65 1.1-23.66Q1.1-24.39 1.38-24.69 1.66-25 2.39-25L2.39-25 5.27-25 5.27-28.1Q5.27-31.05 6.46-33.18 7.64-35.3 9.66-36.45 11.67-37.6 14.14-37.6L14.14-37.6Q15.28-37.6 15.88-37.5 16.48-37.4 16.77-37.21L16.77-37.21Q17.72-36.67 19.41-35.01L19.41-35.01Q19.68-34.72 19.68-34.42L19.68-34.42Q19.68-34.11 19.26-33.69L19.26-33.69Q18.53-32.93 17.87-32.41 17.21-31.88 16.8-31.62L16.8-31.62Q16.43-31.4 16.15-31.36 15.87-31.32 15.38-31.32L15.38-31.32Q12.99-31.32 12.99-27.66L12.99-27.66 12.99-25 17.41-25Q18.14-25 18.42-24.69 18.7-24.39 18.7-23.66L18.7-23.66 18.7-20.65Q18.7-19.92 18.42-19.62 18.14-19.31 17.41-19.31L17.41-19.31 12.99-19.31ZM30.1-22.17L30.1-20.36 30.2-20.36Q32.03-25.44 36.79-25.44L36.79-25.44Q37.4-25.44 37.79-25.38 38.18-25.32 38.33-25.27L38.33-25.27Q38.69-25.15 38.69-24.71L38.69-24.71 38.69-18.82Q38.69-18.07 37.81-18.41L37.81-18.41Q37.52-18.53 36.97-18.66 36.42-18.8 35.45-18.8L35.45-18.8Q32.93-18.8 31.52-16.96 30.1-15.11 30.1-11.94L30.1-11.94 30.1-1.29Q30.1-0.56 29.79-0.28 29.49 0 28.76 0L28.76 0 23.73 0Q23 0 22.69-0.28 22.39-0.56 22.39-1.29L22.39-1.29 22.39-21.75Q22.39-22.34 22.63-22.66L22.63-22.66Q23.14-23.34 23.86-24.05 24.58-24.76 25.63-25.56L25.63-25.56Q25.83-25.71 26.02-25.76 26.22-25.81 26.36-25.81L26.36-25.81Q26.71-25.81 27.05-25.56L27.05-25.56Q29.07-23.97 29.88-22.85L29.88-22.85Q30.1-22.56 30.1-22.17L30.1-22.17ZM54.58 0.61L54.58 0.61Q50.46 0.61 47.41-0.72 44.36-2.05 42.67-4.86 40.99-7.67 40.99-12.11L40.99-12.11Q40.99-18.77 44.4-22.19 47.82-25.61 53.49-25.61L53.49-25.61Q57.17-25.61 59.72-24.29 62.28-22.97 63.61-20.65 64.94-18.33 64.94-15.36L64.94-15.36Q64.94-12.45 63.45-11.3 61.96-10.16 59.1-10.16L59.1-10.16 48.63-10.16Q48.82-7.64 50.47-6.32 52.12-5 54.95-5L54.95-5Q57.2-5 58.55-5.68 59.91-6.35 60.44-6.74L60.44-6.74Q60.91-7.08 61.49-7.06L61.49-7.06Q61.96-7.06 62.82-6.87 63.69-6.69 64.55-6.2L64.55-6.2Q65.16-5.88 65.16-5.32L65.16-5.32Q65.16-5 65.03-4.42L65.03-4.42Q64.96-4.08 64.79-3.43 64.62-2.78 64.35-2.22L64.35-2.22Q64.2-1.95 63.89-1.71L63.89-1.71Q63.4-1.37 62.31-0.81 61.23-0.24 59.35 0.18 57.47 0.61 54.58 0.61ZM48.58-15.16L48.58-15.16 56.54-15.16Q57.78-15.16 57.78-16.31L57.78-16.31Q57.78-18.04 56.7-19.23 55.61-20.41 53.44-20.41L53.44-20.41Q51.07-20.41 49.96-18.9 48.85-17.38 48.58-15.16ZM82.56 0.61L82.56 0.61Q78.43 0.61 75.38-0.72 72.33-2.05 70.65-4.86 68.96-7.67 68.96-12.11L68.96-12.11Q68.96-18.77 72.38-22.19 75.8-25.61 81.46-25.61L81.46-25.61Q85.15-25.61 87.7-24.29 90.25-22.97 91.58-20.65 92.91-18.33 92.91-15.36L92.91-15.36Q92.91-12.45 91.42-11.3 89.93-10.16 87.08-10.16L87.08-10.16 76.6-10.16Q76.8-7.64 78.45-6.32 80.1-5 82.93-5L82.93-5Q85.17-5 86.53-5.68 87.88-6.35 88.42-6.74L88.42-6.74Q88.88-7.08 89.47-7.06L89.47-7.06Q89.93-7.06 90.8-6.87 91.67-6.69 92.52-6.2L92.52-6.2Q93.13-5.88 93.13-5.32L93.13-5.32Q93.13-5 93.01-4.42L93.01-4.42Q92.94-4.08 92.77-3.43 92.6-2.78 92.33-2.22L92.33-2.22Q92.18-1.95 91.86-1.71L91.86-1.71Q91.37-1.37 90.29-0.81 89.2-0.24 87.32 0.18 85.44 0.61 82.56 0.61ZM76.56-15.16L76.56-15.16 84.51-15.16Q85.76-15.16 85.76-16.31L85.76-16.31Q85.76-18.04 84.67-19.23 83.59-20.41 81.41-20.41L81.41-20.41Q79.05-20.41 77.93-18.9 76.82-17.38 76.56-15.16ZM119.79-22.17L119.79-20.36 119.88-20.36Q121.72-25.44 126.48-25.44L126.48-25.44Q127.09-25.44 127.48-25.38 127.87-25.32 128.01-25.27L128.01-25.27Q128.38-25.15 128.38-24.71L128.38-24.71 128.38-18.82Q128.38-18.07 127.5-18.41L127.5-18.41Q127.21-18.53 126.66-18.66 126.11-18.8 125.13-18.8L125.13-18.8Q122.62-18.8 121.2-16.96 119.79-15.11 119.79-11.94L119.79-11.94 119.79-1.29Q119.79-0.56 119.48-0.28 119.18 0 118.44 0L118.44 0 113.42 0Q112.68 0 112.38-0.28 112.07-0.56 112.07-1.29L112.07-1.29 112.07-21.75Q112.07-22.34 112.32-22.66L112.32-22.66Q112.83-23.34 113.55-24.05 114.27-24.76 115.32-25.56L115.32-25.56Q115.51-25.71 115.71-25.76 115.91-25.81 116.05-25.81L116.05-25.81Q116.39-25.81 116.74-25.56L116.74-25.56Q118.76-23.97 119.57-22.85L119.57-22.85Q119.79-22.56 119.79-22.17L119.79-22.17ZM144.27 0.61L144.27 0.61Q140.15 0.61 137.09-0.72 134.04-2.05 132.36-4.86 130.67-7.67 130.67-12.11L130.67-12.11Q130.67-18.77 134.09-22.19 137.51-25.61 143.17-25.61L143.17-25.61Q146.86-25.61 149.41-24.29 151.96-22.97 153.29-20.65 154.62-18.33 154.62-15.36L154.62-15.36Q154.62-12.45 153.13-11.3 151.65-10.16 148.79-10.16L148.79-10.16 138.32-10.16Q138.51-7.64 140.16-6.32 141.81-5 144.64-5L144.64-5Q146.88-5 148.24-5.68 149.59-6.35 150.13-6.74L150.13-6.74Q150.6-7.08 151.18-7.06L151.18-7.06Q151.65-7.06 152.51-6.87 153.38-6.69 154.23-6.2L154.23-6.2Q154.84-5.88 154.84-5.32L154.84-5.32Q154.84-5 154.72-4.42L154.72-4.42Q154.65-4.08 154.48-3.43 154.31-2.78 154.04-2.22L154.04-2.22Q153.89-1.95 153.57-1.71L153.57-1.71Q153.09-1.37 152-0.81 150.91-0.24 149.03 0.18 147.15 0.61 144.27 0.61ZM138.27-15.16L138.27-15.16 146.23-15.16Q147.47-15.16 147.47-16.31L147.47-16.31Q147.47-18.04 146.38-19.23 145.3-20.41 143.12-20.41L143.12-20.41Q140.76-20.41 139.65-18.9 138.53-17.38 138.27-15.16ZM166.46 0.61L166.46 0.61Q162.87 0.61 160.76-1.4 158.65-3.42 158.65-6.96L158.65-6.96Q158.65-8.79 159.32-10.36 159.99-11.94 161.66-13.15 163.34-14.36 166.35-15.09 169.37-15.82 174.05-15.94L174.05-15.94Q174.05-18.16 172.94-19.14 171.83-20.12 169.61-20.12L169.61-20.12Q167.61-20.12 166.34-19.43 165.07-18.75 164.75-18.51L164.75-18.51Q164.41-18.21 163.92-18.29L163.92-18.29Q163.26-18.38 162.52-18.63 161.77-18.87 160.92-19.19L160.92-19.19Q160.8-19.24 160.65-19.35 160.5-19.46 160.48-19.68L160.48-19.68Q160.48-19.8 160.5-19.98 160.53-20.17 160.63-20.65L160.63-20.65Q160.72-21.14 160.92-21.86 161.12-22.58 161.29-22.97L161.29-22.97Q161.51-23.39 162.02-23.75L162.02-23.75Q162.43-24.1 164.53-24.85 166.63-25.61 170.61-25.61L170.61-25.61Q181.57-25.61 181.57-14.94L181.57-14.94 181.57-1.12Q181.57-0.66 181.32-0.33 181.06 0 180.45 0L180.45 0 176.79 0Q176.4 0 176.09-0.11 175.79-0.22 175.52-0.54L175.52-0.54 174.01-2.49 173.84-2.49Q172.71-0.85 170.82-0.12 168.93 0.61 166.46 0.61ZM169.15-5.05L169.15-5.05Q171.39-5.05 172.54-6.2 173.69-7.35 174.01-8.57L174.01-8.57 174.01-11.28Q170.61-11.28 168.92-10.75 167.22-10.23 166.66-9.39 166.1-8.54 166.1-7.57L166.1-7.57Q166.1-6.15 166.97-5.6 167.85-5.05 169.15-5.05ZM197 0.61L197 0.61Q193.75 0.61 191.47-0.99 189.19-2.59 188-5.41 186.82-8.23 186.82-11.91L186.82-11.91Q186.82-16.77 188.54-19.79 190.26-22.8 193.4-24.22 196.54-25.63 200.81-25.63L200.81-25.63Q202.27-25.63 203.24-25.49 204.2-25.34 204.62-25.22L204.62-25.22 204.62-34.33Q204.62-34.91 204.86-35.23L204.86-35.23Q205.89-36.57 207.87-38.13L207.87-38.13Q208.21-38.38 208.48-38.38L208.48-38.38Q208.79-38.38 209.09-38.13L209.09-38.13Q210.14-37.33 210.86-36.62 211.58-35.91 212.09-35.23L212.09-35.23Q212.33-34.91 212.33-34.33L212.33-34.33 212.33-1.12Q212.33-0.66 212.02-0.33 211.7 0 211.21 0L211.21 0 207.57 0Q207.18 0 206.88-0.11 206.57-0.22 206.3-0.54L206.3-0.54 204.79-2.49 204.62-2.49Q204.3-2 203.48-1.26 202.67-0.51 201.12 0.05 199.56 0.61 197 0.61ZM199.37-5.64L199.37-5.64Q201.57-5.64 202.82-6.47 204.08-7.3 204.62-8.57L204.62-8.57 204.62-18.8Q204.23-19.04 203.32-19.38 202.42-19.73 200.79-19.73L200.79-19.73Q197.76-19.73 196.24-17.75 194.73-15.77 194.73-12.43L194.73-12.43Q194.73-8.96 196-7.3 197.27-5.64 199.37-5.64ZM217.8-33.2L217.8-33.2Q217.8-33.52 218-33.76 218.19-34.01 218.51-34.4L218.51-34.4Q219.19-35.18 220.09-36.05 221-36.91 221.93-37.72L221.93-37.72Q222.51-38.18 222.8-38.18L222.8-38.18Q223.1-38.18 223.71-37.72L223.71-37.72Q225.69-36.01 227.08-34.4L227.08-34.4Q227.39-34.03 227.6-33.78 227.81-33.52 227.81-33.2L227.81-33.2Q227.81-32.89 227.6-32.64 227.39-32.4 227.05-31.98L227.05-31.98Q226.39-31.23 225.51-30.36 224.64-29.49 223.71-28.71L223.71-28.71Q223.37-28.42 223.17-28.33 222.98-28.25 222.8-28.25L222.8-28.25Q222.63-28.25 222.45-28.33 222.27-28.42 221.88-28.71L221.88-28.71Q220.9-29.49 220.05-30.36 219.19-31.23 218.51-32.03L218.51-32.03Q218.19-32.42 218-32.65 217.8-32.89 217.8-33.2ZM226.64-23.71L226.64-1.29Q226.64-0.56 226.33-0.28 226.03 0 225.29 0L225.29 0 220.27 0Q219.53 0 219.23-0.28 218.92-0.56 218.92-1.29L218.92-1.29 218.92-23.71Q218.92-24.44 219.23-24.72 219.53-25 220.27-25L220.27-25 225.29-25Q226.03-25 226.33-24.72 226.64-24.44 226.64-23.71L226.64-23.71ZM257.45-15.55L257.45-15.55 257.45-1.29Q257.45-0.56 257.14-0.28 256.84 0 256.1 0L256.1 0 251.07 0Q250.34 0 250.04-0.28 249.73-0.56 249.73-1.29L249.73-1.29 249.73-14.28Q249.73-16.94 248.61-18.16 247.48-19.38 245.56-19.38L245.56-19.38Q243.63-19.38 242.59-18.55 241.55-17.72 240.99-16.46L240.99-16.46 240.99-1.29Q240.99-0.56 240.69-0.28 240.38 0 239.65 0L239.65 0 234.62 0Q233.89 0 233.58-0.28 233.28-0.56 233.28-1.29L233.28-1.29 233.28-21.75Q233.28-22.34 233.52-22.66L233.52-22.66Q234.03-23.34 234.75-24.05 235.47-24.76 236.52-25.56L236.52-25.56Q236.84-25.81 237.13-25.81L237.13-25.81Q237.4-25.81 237.74-25.56L237.74-25.56Q238.77-24.76 239.5-24.02 240.23-23.29 240.8-22.51L240.8-22.51 240.92-22.51Q241.33-23.05 242.16-23.77 242.99-24.49 244.49-25.05 246-25.61 248.34-25.61L248.34-25.61Q250.63-25.61 252.71-24.68 254.78-23.75 256.12-21.56 257.45-19.36 257.45-15.55ZM288.2-22.66L288.2-22.66 288.2-2.86Q288.2 4.27 284.14 8.01 280.08 11.74 272.99 11.74L272.99 11.74Q270.07 11.74 268.36 11.32 266.65 10.89 265.77 10.5L265.77 10.5Q265.21 10.23 265.04 9.94L265.04 9.94Q264.79 9.55 264.49 8.79 264.18 8.03 263.91 7.13L263.91 7.13Q263.84 6.79 263.89 6.62L263.89 6.62Q263.99 6.37 264.25 6.1L264.25 6.1Q264.69 5.66 265.51 5.08 266.33 4.49 266.77 4.32L266.77 4.32Q267.23 4.15 267.62 4.37L267.62 4.37Q268.26 4.71 269.44 5.14 270.63 5.57 272.78 5.57L272.78 5.57Q276.19 5.57 278.34 3.81 280.49 2.05 280.49-1.61L280.49-1.61 280.49-2.49 280.39-2.49Q279.86-1.81 279-1.1 278.15-0.39 276.79 0.1 275.44 0.59 273.31 0.59L273.31 0.59Q269.63 0.59 267.27-1.01 264.91-2.61 263.8-5.42 262.69-8.23 262.69-11.82L262.69-11.82Q262.69-15.75 263.99-18.87 265.28-22 268.33-23.82 271.38-25.63 276.68-25.63L276.68-25.63Q279.86-25.63 282.02-25.17 284.18-24.71 285.64-24.02 287.11-23.34 288.2-22.66ZM276.41-19.73L276.41-19.73Q273.58-19.73 272.09-17.82 270.6-15.92 270.6-11.91L270.6-11.91Q270.6-5.64 275.78-5.64L275.78-5.64Q277.8-5.64 278.88-6.47 279.95-7.3 280.49-8.57L280.49-8.57 280.49-18.65Q279.95-19.04 278.98-19.38 278-19.73 276.41-19.73Z" opacity="1" transform="matrix(1,0,0,1,0,0)" fill="#b6a522" class="slogan-text-1" data-fill-palette-color="secondary" id="text-1"></path></svg></g></svg></g></svg></g></svg></g><g></g></svg></g><defs></defs></svg><rect width="284.8943749584582" height="247.2" fill="none" stroke="none" visibility="hidden"></rect></g></svg></g></svg>